<svg width="36" height="36" viewBox="0 0 36 36" fill="none" xmlns="http://www.w3.org/2000/svg">
<path fill-rule="evenodd" clip-rule="evenodd" d="M1.99213 6.2476C2.52362 6.2499 3.03265 6.46207 3.40847 6.83789C3.78429 7.21371 3.99648 7.72276 3.99878 8.25425C4.01286 8.77535 4.22979 9.27038 4.60334 9.63398C4.97689 9.99758 5.47758 10.201 5.99887 10.201C6.52016 10.201 7.02085 9.99758 7.3944 9.63398C7.76796 9.27038 7.98489 8.77535 7.99896 8.25425V2.00665C8.00127 1.47516 8.21338 0.966094 8.5892 0.590272C8.96502 0.214451 9.47413 0.00230416 10.0056 0C10.5351 0.00498916 11.0412 0.218416 11.4143 0.594031C11.7875 0.969646 11.9976 1.47719 11.9991 2.00665V15.1236C11.9919 15.3908 12.0383 15.6567 12.1355 15.9057C12.2328 16.1546 12.379 16.3816 12.5654 16.5731C12.7519 16.7647 12.9748 16.9169 13.221 17.0209C13.4673 17.1248 13.7319 17.1784 13.9992 17.1784C14.2665 17.1784 14.5311 17.1248 14.7773 17.0209C15.0236 16.9169 15.2465 16.7647 15.433 16.5731C15.6194 16.3816 15.7655 16.1546 15.8628 15.9057C15.9601 15.6567 16.0065 15.3908 15.9993 15.1236V8.25425C16.0016 7.72276 16.2138 7.21371 16.5896 6.83789C16.9654 6.46207 17.4744 6.2499 18.0059 6.2476C18.5354 6.25259 19.0415 6.46603 19.4146 6.84165C19.7878 7.21726 19.9979 7.72479 19.9994 8.25425V15.1236C19.9994 15.6538 20.2101 16.1624 20.5851 16.5373C20.96 16.9123 21.4685 17.1229 21.9988 17.1229C22.529 17.1229 23.0376 16.9123 23.4125 16.5373C23.7875 16.1624 23.9981 15.6538 23.9981 15.1236V2.00665C24.0004 1.47491 24.2128 0.965618 24.5889 0.589756C24.9651 0.213893 25.4745 0.00192021 26.0062 0C26.5362 0.00270295 27.0436 0.215438 27.417 0.591591C27.7904 0.967743 27.9995 1.47662 27.9983 2.00665V8.25425C28.0124 8.77535 28.2293 9.27038 28.6028 9.63398C28.9764 9.99758 29.4771 10.201 29.9983 10.201C30.5196 10.201 31.0204 9.99758 31.3939 9.63398C31.7675 9.27038 31.9844 8.77535 31.9984 8.25425C32.0007 7.72251 32.2131 7.21324 32.5892 6.83737C32.9654 6.46151 33.4748 6.24952 34.0066 6.2476C34.5366 6.2503 35.0439 6.46306 35.4174 6.83921C35.7908 7.21536 35.9998 7.72422 35.9986 8.25425V27.7603C35.9967 28.2881 35.7862 28.7936 35.413 29.1668C35.0398 29.54 34.5343 29.7505 34.0066 29.7524C33.4771 29.7513 32.9694 29.5415 32.5935 29.1687C32.2176 28.7958 32.0038 28.2898 31.9984 27.7603C32.0057 27.4931 31.9593 27.2272 31.862 26.9782C31.7648 26.7293 31.6186 26.5023 31.4321 26.3108C31.2457 26.1192 31.0227 25.967 30.7765 25.863C30.5302 25.7591 30.2656 25.7055 29.9983 25.7055C29.731 25.7055 29.4665 25.7591 29.2203 25.863C28.974 25.967 28.7511 26.1192 28.5646 26.3108C28.3782 26.5023 28.232 26.7293 28.1347 26.9782C28.0374 27.2272 27.9911 27.4931 27.9983 27.7603V34.0006C27.9987 34.2624 27.9474 34.5217 27.8475 34.7637C27.7475 35.0056 27.6008 35.2254 27.4158 35.4106C27.2307 35.5958 27.011 35.7426 26.7691 35.8428C26.5272 35.9429 26.268 35.9944 26.0062 35.9942C25.476 35.9949 24.9672 35.7856 24.5911 35.4119C24.215 35.0383 24.0023 34.5308 23.9996 34.0006V20.8662C23.9996 20.336 23.789 19.8274 23.414 19.4525C23.0391 19.0775 22.5305 18.8669 22.0003 18.8669C21.47 18.8669 20.9614 19.0775 20.5865 19.4525C20.2115 19.8274 20.0009 20.336 20.0009 20.8662V27.7501C19.9963 28.2773 19.7848 28.7815 19.4118 29.1542C19.0389 29.5268 18.5346 29.738 18.0074 29.7422C17.4782 29.7407 16.9708 29.5308 16.5953 29.1579C16.2197 28.7851 16.0061 28.2793 16.0008 27.7501V20.8662C15.9867 20.3451 15.7698 19.8501 15.3962 19.4865C15.0226 19.1229 14.522 18.9194 14.0007 18.9194C13.4794 18.9194 12.9786 19.1229 12.6051 19.4865C12.2315 19.8501 12.0147 20.3451 12.0006 20.8662V34.0006C11.999 34.5289 11.7885 35.0351 11.415 35.4086C11.0414 35.7821 10.5353 35.9926 10.007 35.9942C9.47676 35.9953 8.96768 35.7861 8.59148 35.4124C8.21529 35.0386 8.00271 34.5309 8.00039 34.0006V27.7545C8.00761 27.4873 7.9612 27.2214 7.86393 26.9724C7.76666 26.7234 7.62053 26.4965 7.4341 26.3049C7.24766 26.1134 7.0247 25.9611 6.77844 25.8572C6.53219 25.7532 6.2676 25.6997 6.0003 25.6997C5.733 25.6997 5.46841 25.7532 5.22215 25.8572C4.9759 25.9611 4.75301 26.1134 4.56657 26.3049C4.38013 26.4965 4.23393 26.7234 4.13667 26.9724C4.0394 27.2214 3.99299 27.4873 4.00021 27.7545C3.99483 28.2837 3.78127 28.7895 3.40569 29.1623C3.03012 29.5351 2.52277 29.745 1.99356 29.7465C1.46639 29.7424 0.962027 29.5312 0.589117 29.1585C0.216207 28.7859 0.00466906 28.2817 9.15527e-05 27.7545V8.25425C0.00160384 7.72479 0.211685 7.21726 0.584841 6.84165C0.957998 6.46603 1.46412 6.25259 1.99356 6.2476H1.99213ZM7.99896 14.0071C8.00618 13.7399 7.95977 13.474 7.8625 13.225C7.76524 12.976 7.61904 12.7491 7.4326 12.5576C7.24616 12.366 7.02327 12.2138 6.77702 12.1098C6.53076 12.0059 6.26617 11.9523 5.99887 11.9523C5.73157 11.9523 5.46698 12.0059 5.22073 12.1098C4.97447 12.2138 4.75151 12.366 4.56507 12.5576C4.37864 12.7491 4.23251 12.976 4.13524 13.225C4.03797 13.474 3.99156 13.7399 3.99878 14.0071V22.0075C4.01286 22.5286 4.22979 23.0236 4.60334 23.3872C4.97689 23.7508 5.47758 23.9542 5.99887 23.9542C6.52016 23.9542 7.02085 23.7508 7.3944 23.3872C7.76796 23.0236 7.98489 22.5286 7.99896 22.0075V14.0071ZM27.9925 22.0075V14.0071C27.9853 13.7399 28.0316 13.474 28.1289 13.225C28.2261 12.976 28.3723 12.7491 28.5588 12.5576C28.7452 12.366 28.9682 12.2138 29.2144 12.1098C29.4607 12.0059 29.7253 11.9523 29.9926 11.9523C30.2599 11.9523 30.5244 12.0059 30.7706 12.1098C31.0169 12.2138 31.2399 12.366 31.4263 12.5576C31.6127 12.7491 31.7589 12.976 31.8562 13.225C31.9535 13.474 31.9998 13.7399 31.9926 14.0071V22.0075C31.9785 22.5286 31.7617 23.0236 31.3881 23.3872C31.0146 23.7508 30.5139 23.9542 29.9926 23.9542C29.4713 23.9542 28.9705 23.7508 28.597 23.3872C28.2234 23.0236 28.0066 22.5286 27.9925 22.0075Z" fill="#E15539"/>
</svg>
